<svg width="129" height="38" viewBox="0 0 129 38" fill="none" xmlns="http://www.w3.org/2000/svg">
<g clip-path="url(#clip0_77_12)">
<mask id="mask0_77_12" style="mask-type:luminance" maskUnits="userSpaceOnUse" x="0" y="0" width="129" height="38">
<path d="M129 0H0V37.9358H129V0Z" fill="white"/>
</mask>
<g mask="url(#mask0_77_12)">
<path d="M53.6514 14.7783C53.7072 13.9901 53.4979 13.3798 53.0237 12.9473C52.5563 12.5148 51.8169 12.2985 50.8054 12.2985C50.1358 12.2985 49.5638 12.3857 49.0895 12.5601C48.6151 12.7275 48.2419 12.9647 47.9699 13.2716C47.6978 13.5716 47.5269 13.9204 47.4571 14.318C47.3944 14.6319 47.4118 14.9108 47.5095 15.155C47.6071 15.3991 47.778 15.6154 48.0222 15.8037C48.2733 15.9921 48.5837 16.156 48.9534 16.2955C49.3301 16.435 49.7522 16.5571 50.2195 16.6617L51.9773 17.0803C52.9958 17.3105 53.8781 17.6174 54.6245 18.001C55.3779 18.3777 55.9883 18.8346 56.4557 19.3717C56.9229 19.9019 57.2438 20.5123 57.4182 21.2028C57.5926 21.8934 57.6066 22.6677 57.4601 23.5257C57.2368 24.8789 56.7032 26.0404 55.8592 27.01C55.0221 27.9795 53.9269 28.7224 52.5738 29.2386C51.2274 29.7548 49.6615 30.0129 47.8757 30.0129C46.09 30.0129 44.5728 29.7444 43.3242 29.2072C42.0825 28.6631 41.1826 27.8435 40.6246 26.7484C40.0666 25.6532 39.9166 24.2721 40.1747 22.6049H45.1238C45.0471 23.2955 45.1343 23.871 45.3854 24.3313C45.6435 24.7917 46.0412 25.1405 46.5783 25.3777C47.1153 25.6148 47.7641 25.7334 48.5244 25.7334C49.222 25.7334 49.8324 25.6392 50.3555 25.4509C50.8856 25.2626 51.3077 25.001 51.6216 24.6661C51.9424 24.3313 52.1378 23.9477 52.2075 23.5152C52.2773 23.1176 52.211 22.7723 52.0087 22.4793C51.8134 22.1863 51.4786 21.9317 51.0042 21.7155C50.5368 21.4992 49.9231 21.3039 49.1627 21.1296L47.0177 20.6064C45.2459 20.1739 43.9031 19.4833 42.9894 18.5346C42.0825 17.586 41.7616 16.299 42.0267 14.6737C42.2499 13.3414 42.801 12.1764 43.68 11.179C44.5658 10.1815 45.6854 9.40722 47.0386 8.85611C48.3989 8.29806 49.8952 8.01904 51.5274 8.01904C53.1876 8.01904 54.5827 8.30155 55.7127 8.86658C56.8497 9.42462 57.6693 10.2129 58.1716 11.2313C58.6808 12.2427 58.8273 13.4251 58.6111 14.7783H53.6514Z" fill="white"/>
<path d="M72.5901 8.31201H77.7589L75.4675 22.134C75.2024 23.7315 74.592 25.123 73.6364 26.3089C72.6877 27.4877 71.4774 28.4015 70.0056 29.0503C68.5338 29.6921 66.8946 30.0129 65.0878 30.0129C63.2742 30.0129 61.7431 29.6921 60.4945 29.0503C59.2458 28.4015 58.3426 27.4877 57.7845 26.3089C57.2265 25.123 57.0765 23.7315 57.3346 22.134L59.626 8.31201H64.8053L62.5767 21.6841C62.4581 22.4235 62.5139 23.0827 62.7441 23.6617C62.9813 24.2337 63.3649 24.6871 63.8951 25.0219C64.4252 25.3498 65.0739 25.5137 65.8412 25.5137C66.6155 25.5137 67.3236 25.3498 67.9653 25.0219C68.607 24.6871 69.1372 24.2337 69.5557 23.6617C69.9743 23.0827 70.2428 22.4235 70.3614 21.6841L72.5901 8.31201Z" fill="white"/>
<path d="M74.103 29.7409L77.6606 8.31201H86.5125C88.1169 8.31201 89.4562 8.6015 90.5305 9.18047C91.6047 9.7525 92.3688 10.5756 92.8218 11.6498C93.2758 12.7171 93.3798 13.9832 93.1358 15.448C92.8983 16.9268 92.3688 18.1858 91.5454 19.2252C90.7293 20.2576 89.6759 21.0459 88.3855 21.5899C87.102 22.134 85.6441 22.4061 84.0118 22.4061H78.414L79.1046 18.3254H83.7398C84.5141 18.3254 85.1837 18.2242 85.7488 18.0219C86.3137 17.8127 86.7636 17.4988 87.0985 17.0803C87.4403 16.6548 87.667 16.1107 87.7786 15.448C87.8833 14.7853 87.8344 14.2378 87.6321 13.8053C87.4368 13.3658 87.0915 13.0379 86.5962 12.8217C86.1079 12.5985 85.4802 12.4869 84.7129 12.4869H82.1598L79.2824 29.7409H74.103ZM87.7891 19.9472L91.5036 29.7409H85.8534L82.254 19.9472H87.7891Z" fill="white"/>
<path d="M106.481 15.3119C106.439 14.8725 106.342 14.4854 106.188 14.1506C106.034 13.8088 105.825 13.5193 105.56 13.2821C105.295 13.0449 104.967 12.867 104.577 12.7484C104.186 12.6229 103.732 12.5601 103.217 12.5601C102.184 12.5601 101.229 12.8112 100.349 13.3135C99.4709 13.8157 98.7278 14.5482 98.121 15.5107C97.5142 16.4664 97.0989 17.6279 96.8752 18.995C96.6524 20.3693 96.645 21.5411 96.8549 22.5107C97.0704 23.4803 97.5032 24.2197 98.1523 24.7289C98.8005 25.2381 99.6587 25.4928 100.726 25.4928C101.682 25.4928 102.526 25.3393 103.258 25.0324C103.991 24.7184 104.584 24.2755 105.037 23.7036C105.497 23.1316 105.786 22.4584 105.905 21.6841L106.857 21.7992H101.647L102.275 18.0219H111.503L111.032 20.8576C110.718 22.7758 110.042 24.4185 109.003 25.7857C107.97 27.153 106.68 28.2027 105.131 28.9352C103.589 29.6676 101.898 30.0339 100.056 30.0339C98.0197 30.0339 96.2997 29.5909 94.8983 28.705C93.496 27.8191 92.4988 26.5566 91.9054 24.9173C91.3125 23.2711 91.201 21.3179 91.5706 19.0578C91.8636 17.3 92.3837 15.7409 93.1295 14.3808C93.8827 13.0135 94.8035 11.8555 95.8918 10.9069C96.9875 9.95821 98.1974 9.23973 99.5224 8.75148C100.848 8.26319 102.226 8.01904 103.656 8.01904C104.891 8.01904 106.014 8.19692 107.025 8.55268C108.037 8.90842 108.901 9.41062 109.62 10.0594C110.339 10.7081 110.879 11.479 111.242 12.3718C111.611 13.2647 111.771 14.2447 111.723 15.3119H106.481Z" fill="white"/>
<path d="M109.203 29.7409L112.761 8.31201H127.703L126.991 12.5182H117.229L116.517 16.9129H125.516L124.804 21.1295H115.805L115.094 25.5346H124.856L124.145 29.7409H109.203Z" fill="white"/>
<path d="M20.7495 0.337646L33.5975 18.3645L2.72266 13.1857L20.7495 0.337646Z" fill="white"/>
<path fill-rule="evenodd" clip-rule="evenodd" d="M31.0671 33.4504L18.219 15.4236L0.192139 28.2717L10.1026 29.9339L14.6719 36.5702L21.1565 31.7881L31.0671 33.4504Z" fill="white"/>
<path fill-rule="evenodd" clip-rule="evenodd" d="M19.6564 6.854L32.4289 25.3316L21.9363 23.5716L20.3657 28.7492L17.3186 28.2381L17.0271 22.7482L16.9533 22.7359L14.8797 27.829L11.8396 27.3191L12.0459 21.9127L1.55396 20.1528L19.6564 6.854Z" fill="#F4431C"/>
</g>
</g>
<defs>
<clipPath id="clip0_77_12">
<rect width="129" height="37.9358" fill="white"/>
</clipPath>
</defs>
</svg>
