<!-- <svg width="100%" height="30px" viewBox="0 0 157 32" fill="none" xmlns="http://www.w3.org/2000/svg">
    <path fillRule="evenodd" clipRule="evenodd" d="M13.8645 0L27.7453 8.01406L27.7568 19.4085L20.856 15.4243L20.8408 12.0231L13.8449 7.98397L6.88486 11.9609L6.92073 19.9769L13.9166 24.016L13.9198 24.0142L20.8324 28.0052L13.897 32L0.0162326 23.9859L0 7.98594L13.8645 0Z" fill="#ffffff"/>
    <path d="M13.4933 17.8449L27.7023 26.0485L24.3462 28.9965L10.1371 20.7929L13.4933 17.8449Z" fill="#ffffff"/>
    <path d="M19.1603 15.4338L29.5343 21.4232L26.1781 24.3712L15.8041 18.3818L19.1603 15.4338Z" fill="#ffffff"/>
    <path d="M43.7944 19.6401L47.1058 22.2727L45.5173 23.6565L42.2564 21.0239L43.7944 19.6401ZM47.1898 15.033V15.6152C47.1898 16.549 47.0637 17.3872 46.8116 18.1297C46.5651 18.8722 46.2093 19.5051 45.7443 20.0282C45.2792 20.5457 44.7301 20.9423 44.097 21.218C43.4639 21.4936 42.7607 21.6314 41.9875 21.6314C41.2199 21.6314 40.5168 21.4936 39.878 21.218C39.2393 20.9423 38.6874 20.5457 38.2224 20.0282C37.7573 19.5051 37.3959 18.8722 37.1382 18.1297C36.8861 17.3872 36.76 16.549 36.76 15.6152V15.033C36.76 14.0936 36.8861 13.2555 37.1382 12.5186C37.3959 11.776 37.7545 11.1432 38.214 10.6201C38.6734 10.0969 39.2225 9.69753 39.8612 9.42189C40.4999 9.14626 41.2031 9.00844 41.9707 9.00844C42.7439 9.00844 43.4471 9.14626 44.0802 9.42189C44.7189 9.69753 45.2708 10.0969 45.7358 10.6201C46.2009 11.1432 46.5595 11.776 46.8116 12.5186C47.0637 13.2555 47.1898 14.0936 47.1898 15.033ZM44.6433 15.6152V15.0162C44.6433 14.3636 44.5817 13.7899 44.4584 13.2948C44.3407 12.7998 44.167 12.3836 43.9373 12.0461C43.7132 11.7085 43.4359 11.4554 43.1053 11.2866C42.7747 11.1123 42.3965 11.0251 41.9707 11.0251C41.5449 11.0251 41.1667 11.1123 40.8361 11.2866C40.5055 11.4554 40.2282 11.7085 40.0041 12.0461C39.78 12.3836 39.6091 12.7998 39.4914 13.2948C39.3738 13.7899 39.3149 14.3636 39.3149 15.0162V15.6152C39.3149 16.2621 39.3738 16.8359 39.4914 17.3366C39.6091 17.8316 39.78 18.2507 40.0041 18.5938C40.2338 18.9313 40.5139 19.1873 40.8445 19.3616C41.1807 19.536 41.5617 19.6232 41.9875 19.6232C42.4133 19.6232 42.7887 19.536 43.1137 19.3616C43.4443 19.1873 43.7216 18.9313 43.9457 18.5938C44.1754 18.2507 44.3491 17.8316 44.4668 17.3366C44.5845 16.8359 44.6433 16.2621 44.6433 15.6152Z" fill="#ffffff"/>
    <path d="M56.4878 9.17719H59.0007V17.2944C59.0007 18.2394 58.799 19.0354 58.3956 19.6823C57.9978 20.3292 57.4459 20.8158 56.7399 21.142C56.0396 21.4683 55.2328 21.6314 54.3195 21.6314C53.4062 21.6314 52.5938 21.4683 51.8822 21.142C51.1763 20.8158 50.6216 20.3292 50.2182 19.6823C49.8204 19.0354 49.6215 18.2394 49.6215 17.2944V9.17719H52.1428V17.2944C52.1428 17.8456 52.2296 18.2957 52.4033 18.6444C52.577 18.9932 52.8263 19.2491 53.1513 19.4123C53.4818 19.5754 53.8713 19.657 54.3195 19.657C54.7789 19.657 55.1683 19.5754 55.4877 19.4123C55.8127 19.2491 56.0592 18.9932 56.2273 18.6444C56.401 18.2957 56.4878 17.8456 56.4878 17.2944V9.17719Z" fill="#ffffff"/>
    <path d="M66.5842 11.2782L63.2561 21.4627H60.5751L65.1219 9.17719H66.8279L66.5842 11.2782ZM69.3492 21.4627L66.0127 11.2782L65.7438 9.17719H67.4667L72.0386 21.4627H69.3492ZM69.198 16.8894V18.8722H62.735V16.8894H69.198Z" fill="#ffffff"/>
    <path d="M83.8495 9.17719V21.4627H81.3282L76.4117 13.2273V21.4627H73.8904V9.17719H76.4117L81.3366 17.4209V9.17719H83.8495Z" fill="#ffffff"/>
    <path d="M91.9793 9.17719V21.4627H89.4664V9.17719H91.9793ZM95.7445 9.17719V11.1601H85.7601V9.17719H95.7445Z" fill="#ffffff"/>
    <path d="M105.765 19.4882V21.4627H99.6049V19.4882H105.765ZM100.42 9.17719V21.4627H97.8988V9.17719H100.42Z" fill="#ffffff"/>
    <path d="M107.356 9.17719L109.911 14.7799L112.466 9.17719H115.215L111.189 16.9906V21.4627H108.634V16.9906L104.6 9.17719H107.356Z" fill="#ffffff"/>
    <path d="M122.672 9.17719V21.4627H120.159V9.17719H122.672ZM126.437 9.17719V11.1601H116.453V9.17719H126.437Z" fill="#ffffff"/>
    <path d="M131.272 9.17719V21.4627H128.76V9.17719H131.272Z" fill="#ffffff"/>
    <path d="M141.444 17.3872H143.957C143.907 18.2141 143.68 18.9482 143.277 19.5895C142.879 20.2307 142.321 20.7314 141.604 21.0914C140.893 21.4514 140.035 21.6314 139.032 21.6314C138.248 21.6314 137.545 21.4964 136.923 21.2264C136.301 20.9508 135.769 20.557 135.326 20.0451C134.889 19.5332 134.556 18.9144 134.326 18.1888C134.096 17.4631 133.981 16.6503 133.981 15.7503V14.898C133.981 13.998 134.099 13.1852 134.334 12.4595C134.575 11.7282 134.917 11.1066 135.36 10.5947C135.808 10.0829 136.343 9.68909 136.965 9.41345C137.587 9.13782 138.282 9 139.049 9C140.069 9 140.929 9.18563 141.629 9.5569C142.335 9.92816 142.882 10.4401 143.268 11.0926C143.66 11.7451 143.896 12.4876 143.974 13.3202H141.453C141.425 12.8251 141.327 12.4061 141.159 12.0629C140.991 11.7142 140.736 11.4526 140.394 11.2782C140.058 11.0982 139.61 11.0082 139.049 11.0082C138.629 11.0082 138.262 11.087 137.948 11.2445C137.635 11.402 137.371 11.641 137.158 11.9617C136.945 12.2823 136.786 12.6873 136.679 13.1767C136.578 13.6605 136.528 14.2286 136.528 14.8812V15.7503C136.528 16.3859 136.576 16.9456 136.671 17.4294C136.766 17.9075 136.912 18.3125 137.108 18.6444C137.31 18.9707 137.567 19.2182 137.881 19.387C138.2 19.5501 138.584 19.6316 139.032 19.6316C139.559 19.6316 139.993 19.5473 140.335 19.3785C140.677 19.2098 140.937 18.9594 141.117 18.6276C141.302 18.2957 141.411 17.8822 141.444 17.3872Z" fill="#ffffff"/>
    <path d="M151.306 11.2782L147.977 21.4627H145.296L149.843 9.17719H151.549L151.306 11.2782ZM154.071 21.4627L150.734 11.2782L150.465 9.17719H152.188L156.76 21.4627H154.071ZM153.919 16.8894V18.8722H147.456V16.8894H153.919Z" fill="#ffffff"/>
</svg> -->
<svg xmlns="http://www.w3.org/2000/svg" viewBox="0 0 1068.2 192">
  <defs>
    <style>
      .cls-1 {
        opacity: .98;
      }

      .cls-2 {
        fill: #fff;
        stroke-width: 0px;
      }
    </style>
  </defs>
  <g id="Layer_1" data-name="Layer 1">
    <g class="cls-1">
      <g>
        <path class="cls-2" d="M30.07,161.93V30.07h131.86v70.18s30.07,4.44,30.07,4.44v-44.63c-23.45-23.45-36.6-36.6-60.06-60.06H60.06C36.6,23.45,23.45,36.6,0,60.06v71.89c23.45,23.45,36.6,36.6,60.06,60.06h85.14l-43.81-30.07H30.07Z"/>
        <polygon class="cls-2" points="192 124.74 132.09 108.38 147.19 104.99 131.51 106.3 131.51 122.67 192 146.63 192 124.74"/>
        <polygon class="cls-2" points="192 168.92 113.69 134.56 127.76 130.6 113.11 132.48 113.11 148.85 192 192 192 168.92"/>
      </g>
      <path class="cls-2" d="M353.95,77.96c-2.64-6.03-6.3-11.24-10.97-15.62-4.68-4.38-10.18-7.76-16.49-10.16-6.32-2.4-13.11-3.59-20.38-3.59s-14.21,1.2-20.53,3.59c-6.32,2.4-11.85,5.78-16.57,10.16-4.73,4.38-8.41,9.58-11.05,15.62-2.64,6.04-3.96,12.7-3.96,19.98s1.32,13.94,3.96,19.97c2.64,6.04,6.32,11.24,11.05,15.62,4.72,4.38,10.25,7.76,16.57,10.16,4.73,1.79,9.74,2.91,15.06,3.36v11.15h11.63v-11.23c4.98-.49,9.72-1.58,14.22-3.28,6.32-2.4,11.82-5.78,16.49-10.16,4.68-4.38,8.34-9.58,10.97-15.62,2.64-6.03,3.96-12.69,3.96-19.97s-1.32-13.94-3.96-19.98ZM340.43,119.02c-3.49,5.94-8.21,10.53-14.18,13.75-4.28,2.31-8.95,3.78-13.99,4.43v-13.42l-11.63,2.21v11.31c-5.41-.6-10.38-2.11-14.91-4.54-6.02-3.22-10.77-7.81-14.26-13.75-3.49-5.94-5.23-12.97-5.23-21.08s1.74-15.28,5.23-21.22c3.48-5.94,8.24-10.51,14.26-13.68,6.02-3.18,12.81-4.77,20.38-4.77s14.18,1.59,20.15,4.77c5.97,3.18,10.7,7.74,14.18,13.68,3.48,5.94,5.22,13.02,5.22,21.22s-1.74,15.14-5.22,21.08Z"/>
      <path class="cls-2" d="M374.67,75.4h11.61v43.27c0,6.08,1.61,10.83,4.84,14.24,3.23,3.41,8.02,5.11,14.38,5.11,4.61,0,8.85-1.13,12.72-3.39,3.87-2.26,7.28-5.37,10.23-9.33v-49.9h11.61v70.91h-11.61v-16.03c-2.4,5.44-5.83,9.75-10.3,12.92-4.47,3.18-10.02,4.77-16.66,4.77-8.66,0-15.3-2.44-19.91-7.33-4.61-4.88-6.91-11.56-6.91-20.04v-45.2Z"/>
      <path class="cls-2" d="M462.52,116.94c1.98-2.81,4.84-5.14,8.57-6.98,3.73-1.84,8.36-3.41,13.89-4.7l28.61-6.36v-.83c0-4.79-1.31-8.43-3.94-10.92-2.63-2.49-7.03-3.73-13.2-3.73-5.44,0-10.85,1.17-16.24,3.53-5.39,2.35-10.07,5.55-14.03,9.61l1.8-12.86c3.59-3.23,7.95-5.69,13.06-7.4,5.11-1.7,10.71-2.56,16.8-2.56,9.03,0,15.85,2,20.46,6.01,4.61,4.01,6.91,9.98,6.91,17.9v48.66h-11.61v-15.76c-2.67,4.52-6.82,8.55-12.44,12.1-5.62,3.55-11.94,5.32-18.94,5.32s-12.88-1.87-16.8-5.6c-3.92-3.73-5.87-8.87-5.87-15.41,0-3.87.99-7.21,2.97-10.02ZM474.82,135.74c2.44,2.17,6.1,3.25,10.99,3.25,5.44,0,10.62-1.36,15.55-4.08,4.93-2.72,9.01-6.2,12.23-10.44v-18.8l-26.12,7.05c-5.44,1.38-9.52,3.2-12.23,5.46-2.72,2.26-4.08,5.05-4.08,8.36,0,3.96,1.22,7.03,3.66,9.19Z"/>
      <path class="cls-2" d="M547.6,75.4h11.61v16.03c2.4-5.44,5.9-9.75,10.5-12.92,4.61-3.18,10.27-4.77,17-4.77,8.48,0,15.07,2.47,19.77,7.39,4.7,4.93,7.05,11.59,7.05,19.98v45.2h-11.61v-43.13c0-6.17-1.66-10.97-4.98-14.38-3.32-3.41-8.11-5.11-14.38-5.11-4.7,0-9.03,1.15-12.99,3.45-3.96,2.31-7.42,5.44-10.37,9.4v49.76h-11.61v-70.91Z"/>
      <path class="cls-2" d="M650.17,141.13c-4.06-4.38-6.08-10.57-6.08-18.59v-37.18h-17.83v-9.95h17.83v-21.29l11.61-2.35v23.64h30.27v9.95h-30.27v36.49c0,5.16,1.18,9.08,3.53,11.75,2.35,2.67,6.01,4.01,10.99,4.01,5.53,0,10.51-1.38,14.93-4.15l-1.66,11.06c-1.57.92-3.71,1.68-6.43,2.28-2.72.6-5.65.9-8.78.9-8.02,0-14.05-2.19-18.11-6.57Z"/>
      <path class="cls-2" d="M701.31,45.41l11.61-2.21v103.12h-11.61V45.41Z"/>
      <path class="cls-2" d="M747.91,166.78l9.44-22.15-30.61-69.22h12.44l24.05,55.43,23.64-55.43h12.16l-39.32,91.37h-11.8Z"/>
      <path class="cls-2" d="M836.76,141.13c-4.06-4.38-6.08-10.57-6.08-18.59v-37.18h-17.83v-9.95h17.83v-21.29l11.61-2.35v23.64h30.27v9.95h-30.27v36.49c0,5.16,1.18,9.08,3.53,11.75,2.35,2.67,6.01,4.01,10.99,4.01,5.53,0,10.51-1.38,14.93-4.15l-1.66,11.06c-1.57.92-3.71,1.68-6.43,2.28-2.72.6-5.65.9-8.78.9-8.02,0-14.05-2.19-18.11-6.57Z"/>
      <path class="cls-2" d="M890.44,75.4h11.61v70.91h-11.61v-70.91Z"/>
      <path class="cls-2" d="M924.93,91.92c3.27-5.67,7.85-10.11,13.75-13.34,5.9-3.22,12.49-4.84,19.77-4.84,6.26,0,11.61.74,16.03,2.21,4.42,1.47,7.97,3.55,10.64,6.22l2.07,14.38c-3.41-4.24-7.35-7.47-11.82-9.68-4.47-2.21-9.52-3.32-15.13-3.32s-10.6,1.2-14.93,3.59c-4.33,2.4-7.7,5.69-10.09,9.88-2.4,4.2-3.59,8.78-3.59,13.76s1.17,9.56,3.52,13.75c2.35,4.2,5.69,7.51,10.02,9.95,4.33,2.44,9.31,3.66,14.93,3.66s10.99-1.11,15.83-3.32c4.84-2.21,9.05-5.48,12.65-9.81l-2.21,14.38c-3.04,2.67-6.96,4.77-11.75,6.29-4.79,1.52-10.14,2.28-16.03,2.28-7.37,0-13.99-1.64-19.84-4.91-5.85-3.27-10.44-7.74-13.75-13.41-3.32-5.67-4.98-11.96-4.98-18.87s1.63-13.2,4.91-18.87Z"/>
      <path class="cls-2" d="M1005.51,116.94c1.98-2.81,4.84-5.14,8.57-6.98,3.73-1.84,8.36-3.41,13.89-4.7l28.61-6.36v-.83c0-4.79-1.31-8.43-3.94-10.92-2.63-2.49-7.03-3.73-13.2-3.73-5.44,0-10.85,1.17-16.24,3.53-5.39,2.35-10.07,5.55-14.03,9.61l1.8-12.86c3.59-3.23,7.95-5.69,13.06-7.4,5.11-1.7,10.71-2.56,16.8-2.56,9.03,0,15.85,2,20.46,6.01,4.61,4.01,6.91,9.98,6.91,17.9v48.66h-11.61v-15.76c-2.67,4.52-6.82,8.55-12.44,12.1-5.62,3.55-11.94,5.32-18.94,5.32s-12.88-1.87-16.8-5.6c-3.92-3.73-5.87-8.87-5.87-15.41,0-3.87.99-7.21,2.97-10.02ZM1017.82,135.74c2.44,2.17,6.1,3.25,10.99,3.25,5.44,0,10.62-1.36,15.55-4.08,4.93-2.72,9.01-6.2,12.23-10.44v-18.8l-26.12,7.05c-5.44,1.38-9.52,3.2-12.23,5.46-2.72,2.26-4.08,5.05-4.08,8.36,0,3.96,1.22,7.03,3.66,9.19Z"/>
      <path class="cls-2" d="M890.51,53.98l11.61-2.21v10.78h-11.61v-8.57Z"/>
    </g>
  </g>
</svg>