<?xml version="1.0" encoding="utf-8"?>
<svg xmlns="http://www.w3.org/2000/svg" fill="none" height="396" viewBox="0 0 1628 396" width="1628">
<path d="M550.197 151.619H522.992V126.348H550.197V151.619ZM550.197 269.48H522.992V163.264H550.197V269.48Z" fill="white"/>
<path d="M618.531 165.039C623.979 162.284 629.993 160.887 636.573 160.887C649.317 160.887 658.631 164.548 664.475 171.833C670.319 179.137 673.242 189.366 673.242 202.539V269.462H646.037V208.465C646.037 205.049 645.811 201.784 645.34 198.689C644.887 195.594 644.001 192.858 642.681 190.498C641.362 188.139 639.495 186.252 637.063 184.874C634.631 183.497 631.502 182.798 627.693 182.798C623.225 182.798 619.568 183.648 616.74 185.365C613.912 187.082 611.687 189.347 610.028 192.178C608.388 195.009 607.276 198.331 606.673 202.143C606.088 205.955 605.787 209.975 605.787 214.184V269.462H578.582V163.246H605.787V177.269C608.803 171.871 613.045 167.794 618.512 165.02L618.531 165.039Z" fill="white"/>
<path d="M762.773 163.265C768.164 164.85 773.066 167.209 777.459 170.38C781.851 173.551 785.584 177.552 788.601 182.421C791.617 187.29 793.597 193.008 794.521 199.595H768.485C767.957 197.104 766.996 194.764 765.619 192.593C764.243 190.423 762.565 188.554 760.586 186.969C758.606 185.384 756.381 184.176 753.874 183.308C751.367 182.459 748.878 182.025 746.371 182.025C739.263 182.025 733.249 184.95 728.329 190.8C723.408 196.651 720.938 205.106 720.938 216.165C720.938 227.225 723.333 235.944 728.14 241.927C732.929 247.91 739.075 250.91 746.578 250.91C748.953 250.91 751.272 250.571 753.572 249.929C755.872 249.268 758.078 248.249 760.171 246.872C762.282 245.494 764.111 243.682 765.695 241.436C767.278 239.19 768.523 236.492 769.446 233.34H795.482C793.898 240.587 791.447 246.664 788.092 251.609C784.736 256.553 780.796 260.517 776.252 263.555C771.709 266.575 766.788 268.745 761.453 270.066C756.136 271.387 750.707 272.048 745.183 272.048C737.302 272.048 730.138 270.67 723.691 267.896C717.243 265.14 711.757 261.29 707.232 256.346C702.689 251.42 699.22 245.55 696.788 238.775C694.356 232 693.149 224.602 693.149 216.562C693.149 208.522 694.431 201.105 696.995 194.254C699.559 187.422 703.179 181.515 707.836 176.589C712.492 171.663 718.129 167.813 724.69 165.039C731.27 162.284 738.49 160.887 746.389 160.887C751.913 160.887 757.362 161.68 762.754 163.246L762.773 163.265Z" fill="white"/>
<path d="M839.699 235.811C841.283 239.171 843.319 241.964 845.808 244.21C848.296 246.456 851.105 248.116 854.197 249.249C857.289 250.362 860.4 250.928 863.567 250.928C867.771 250.928 871.843 250.041 875.802 248.267C879.743 246.493 883.098 243.304 885.851 238.699H913.847C912.396 242.643 910.322 246.588 907.645 250.551C904.949 254.495 901.555 258.081 897.483 261.308C893.411 264.536 888.585 267.14 882.985 269.103C877.405 271.066 870.995 272.066 863.756 272.066C855.215 272.066 847.58 270.575 840.887 267.631C834.194 264.687 828.539 260.629 823.92 255.496C819.32 250.362 815.794 244.398 813.362 237.642C810.93 230.867 809.724 223.657 809.724 216.014C809.724 208.37 811.043 200.821 813.664 194.102C816.284 187.384 819.942 181.571 824.617 176.626C829.293 171.681 834.873 167.85 841.377 165.076C847.882 162.32 855.083 160.924 862.964 160.924C870.844 160.924 878.479 162.434 885.059 165.453C891.639 168.492 897.181 172.757 901.725 178.287C906.268 183.817 909.681 190.46 911.981 198.217C914.281 205.973 915.299 214.542 915.035 223.884H836.74C837.136 228.489 838.116 232.471 839.699 235.83V235.811ZM854.687 182.118C851.935 182.967 849.333 184.364 846.901 186.27C844.469 188.176 842.358 190.686 840.586 193.763C838.813 196.839 837.663 200.632 837.135 205.105H887.416C887.284 200.632 886.454 196.839 884.946 193.763C883.438 190.686 881.496 188.176 879.12 186.27C876.764 184.364 874.162 182.986 871.334 182.118C868.506 181.269 865.641 180.835 862.756 180.835C860.136 180.835 857.44 181.269 854.669 182.118H854.687Z" fill="white"/>
<path d="M936.514 163.265H963.718V176.891C966.603 171.89 970.75 167.983 976.142 165.152C981.534 162.321 987.586 160.906 994.278 160.906C1000.97 160.906 1006.74 162.227 1012.32 164.85C1017.9 167.473 1022.76 171.229 1026.91 176.098C1031.06 180.967 1034.34 186.818 1036.77 193.669C1039.2 200.501 1040.41 208.069 1040.41 216.373C1040.41 224.677 1039.2 232.622 1036.77 239.473C1034.34 246.324 1030.98 252.137 1026.72 256.949C1022.44 261.743 1017.52 265.48 1011.94 268.103C1006.36 270.727 1000.41 272.048 994.09 272.048C988.566 272.048 982.986 270.859 977.33 268.5C971.674 266.122 967.149 261.988 963.718 256.062V304.037H936.514V163.265ZM997.351 248.645C1000.31 247.003 1002.88 244.663 1005.04 241.644C1007.21 238.605 1008.89 234.963 1010.08 230.678C1011.26 226.394 1011.85 221.695 1011.85 216.562C1011.85 211.428 1011.26 206.729 1010.08 202.445C1008.89 198.161 1007.21 194.48 1005.04 191.385C1002.88 188.29 1000.31 185.931 997.351 184.27C994.392 182.609 991.149 181.798 987.586 181.798C980.101 181.798 974.068 184.893 969.544 191.083C965 197.273 962.738 205.691 962.738 216.354C962.738 227.017 965 235.793 969.544 241.908C974.087 248.023 980.101 251.08 987.586 251.08C991.13 251.08 994.392 250.25 997.351 248.608V248.645Z" fill="white"/>
<path d="M1092.93 134.445V163.264H1115.01V182.024H1092.93V236.906C1092.93 242.303 1093.95 245.814 1095.98 247.475C1098.02 249.117 1101.47 249.947 1106.33 249.947H1114.61V269.499H1094.7C1088.65 269.499 1083.73 269.009 1079.92 268.008C1076.11 267.008 1073.15 265.385 1071.04 263.064C1068.93 260.761 1067.52 257.798 1066.8 254.174C1066.08 250.551 1065.71 246.116 1065.71 240.85V182.024H1050.72V163.264H1065.71V134.445H1092.93Z" fill="white"/>
<path d="M1163.51 151.619H1136.31V126.349H1163.51V151.619ZM1163.51 269.48H1136.31V163.264H1163.51V269.48Z" fill="white"/>
<path d="M1218.43 268.593C1212.06 266.291 1206.36 262.837 1201.37 258.232C1196.37 253.627 1192.36 247.871 1189.34 240.964C1186.32 234.056 1184.8 225.922 1184.8 216.58C1184.8 207.238 1186.31 199.085 1189.34 192.102C1192.36 185.119 1196.37 179.344 1201.37 174.739C1206.36 170.134 1212.06 166.68 1218.43 164.378C1224.8 162.075 1231.34 160.924 1238.06 160.924C1244.77 160.924 1251.31 162.075 1257.68 164.378C1264.05 166.68 1269.75 170.134 1274.74 174.739C1279.74 179.344 1283.75 185.138 1286.77 192.102C1289.79 199.085 1291.31 207.238 1291.31 216.58C1291.31 225.922 1289.81 234.056 1286.77 240.964C1283.75 247.871 1279.74 253.627 1274.74 258.232C1269.75 262.837 1264.05 266.291 1257.68 268.593C1251.31 270.896 1244.77 272.047 1238.06 272.047C1231.34 272.047 1224.8 270.896 1218.43 268.593ZM1219.62 191.007C1214.81 196.858 1212.42 205.388 1212.42 216.561C1212.42 227.734 1214.81 236.245 1219.62 242.02C1224.41 247.814 1230.55 250.702 1238.06 250.702C1245.56 250.702 1251.71 247.814 1256.49 242.02C1261.28 236.226 1263.7 227.734 1263.7 216.561C1263.7 205.388 1261.3 196.858 1256.49 191.007C1251.69 185.157 1245.56 182.231 1238.06 182.231C1230.55 182.231 1224.43 185.157 1219.62 191.007Z" fill="white"/>
<path d="M1352.51 165.039C1357.96 162.284 1363.98 160.887 1370.56 160.887C1383.3 160.887 1392.61 164.549 1398.46 171.833C1404.3 179.137 1407.22 189.366 1407.22 202.54V269.463H1380.02V208.466C1380.02 205.05 1379.79 201.785 1379.32 198.689C1378.87 195.594 1377.98 192.858 1376.66 190.499C1375.34 188.14 1373.48 186.252 1371.05 184.875C1368.61 183.497 1365.48 182.799 1361.68 182.799C1357.21 182.799 1353.55 183.648 1350.72 185.365C1347.89 187.083 1345.67 189.347 1344.01 192.178C1342.37 195.009 1341.26 198.331 1340.66 202.143C1340.07 205.956 1339.77 209.975 1339.77 214.184V269.463H1312.56V163.246H1339.77V177.269C1342.79 171.871 1347.03 167.795 1352.49 165.02L1352.51 165.039Z" fill="white"/>
<path d="M275.234 0H120.344C53.88 0 0 53.9375 0 120.473V275.527C0 342.062 53.88 396 120.344 396H275.234C341.698 396 395.578 342.062 395.578 275.527V120.473C395.578 53.9375 341.698 0 275.234 0Z" fill="url(#paint0_linear_344_15570)"/>
<path d="M276.194 202.077C258.285 188.818 252.109 164.889 261.132 144.499C281.766 97.8766 290.009 62.9848 279.854 57.1554C269.7 51.326 243.775 76.0619 213.982 117.434C200.955 135.527 177.201 142.28 156.717 133.504C104.692 111.214 63.7238 104.239 55.4483 118.689C44.085 138.52 98.5938 191.173 177.201 236.286C180.113 237.958 183.019 239.584 185.912 241.191C186.074 241.289 186.178 241.347 186.178 241.347C186.178 241.347 167.053 233.033 146.758 235.167C145.165 235.336 143.781 236.377 143.092 237.821C116.874 292.732 105.244 335.529 116.594 342.048C128.25 348.736 160.663 315.184 195.852 262.434C200.285 255.791 208.951 253.403 216.134 256.884C278.606 287.143 330.651 298.561 340.103 282.069C348.385 267.619 321.68 235.752 276.181 202.071L276.194 202.077Z" fill="white"/>
<path d="M1429.06 202.576V120.875H1443.86V190.169H1479.84V202.576H1429.06Z" fill="white"/>
<path d="M1492.69 202.576V120.875H1523.32C1529.6 120.875 1534.87 121.966 1539.12 124.147C1543.4 126.327 1546.64 129.386 1548.82 133.322C1551.02 137.231 1552.13 141.793 1552.13 147.005C1552.13 152.244 1551.01 156.792 1548.78 160.648C1546.57 164.478 1543.31 167.443 1539 169.544C1534.69 171.619 1529.4 172.656 1523.13 172.656H1501.3V160.369H1521.13C1524.8 160.369 1527.81 159.864 1530.15 158.853C1532.49 157.816 1534.22 156.313 1535.33 154.345C1536.48 152.351 1537.05 149.904 1537.05 147.005C1537.05 144.106 1536.48 141.633 1535.33 139.585C1534.19 137.511 1532.45 135.942 1530.11 134.878C1527.77 133.787 1524.75 133.242 1521.05 133.242H1507.49V202.576H1492.69ZM1534.89 165.555L1555.12 202.576H1538.6L1518.74 165.555H1534.89Z" fill="white"/>
<path d="M1562.16 133.282V120.875H1627.34V133.282H1602.09V202.576H1587.41V133.282H1562.16Z" fill="white"/>
<defs>
<linearGradient gradientUnits="userSpaceOnUse" id="paint0_linear_344_15570" x1="703.624" x2="703.624" y1="753.316" y2="222.013">
<stop stop-color="white"/>
<stop offset="1"/>
</linearGradient>
</defs>
</svg>