<svg width="180" height="45" viewBox="0 0 180 45" fill="none" xmlns="http://www.w3.org/2000/svg">
<g clip-path="url(#clip0_1328_400)">
<path fill-rule="evenodd" clip-rule="evenodd" d="M68.358 25.815V16.7044C68.358 15.4122 68.0529 14.4746 67.444 13.8931C66.8338 13.3116 66.0704 13.0215 65.1499 13.0215C64.2294 13.0215 63.4385 13.3063 62.8401 13.8773C62.2418 14.4482 61.9419 15.3911 61.9419 16.7044V25.815H58.125V16.7044C58.125 15.4557 58.2965 14.3731 58.6383 13.4579C58.98 12.5428 59.4449 11.7885 60.0341 11.1964C60.622 10.6044 61.3226 10.1626 62.1357 9.87121C62.9488 9.58111 63.8248 9.43474 64.7663 9.43474C65.9644 9.43474 67.0276 9.67737 67.9586 10.1613C68.8896 10.6466 69.6425 11.3402 70.2199 12.2448H70.2841C70.8406 11.3402 71.583 10.6453 72.514 10.1613C73.4437 9.67605 74.5187 9.43474 75.7377 9.43474C76.6792 9.43474 77.5552 9.57979 78.3683 9.87121C79.1815 10.1626 79.882 10.6031 80.4699 11.1964C81.0578 11.7885 81.5227 12.5428 81.8657 13.4579C82.2075 14.3731 82.379 15.4557 82.379 16.7044V25.815H78.5608V16.7044C78.5608 15.3911 78.2609 14.4482 77.6625 13.8773C77.0641 13.3063 76.2942 13.0215 75.3528 13.0215C74.4113 13.0215 73.6741 13.3116 73.0744 13.8931C72.476 14.4746 72.1762 15.4122 72.1762 16.7044V25.815H68.3593H68.358ZM87.9597 7.94862C87.2539 7.94862 86.6555 7.70072 86.1632 7.20623C85.6708 6.71042 85.4247 6.10779 85.4247 5.39704C85.4247 4.6863 85.6708 4.05071 86.1632 3.5549C86.6555 3.05909 87.2539 2.8125 87.9597 2.8125C88.6654 2.8125 89.2913 3.0604 89.7719 3.5549C90.2537 4.05071 90.4934 4.66388 90.4934 5.39704C90.4934 6.13021 90.2524 6.71042 89.7719 7.20623C89.29 7.70204 88.6864 7.94862 87.9597 7.94862ZM86.0676 25.815V9.85539H89.8845V25.815H86.0676ZM105.413 25.815V17.5114C105.413 15.9818 105.049 14.8517 104.322 14.1186C103.595 13.3867 102.621 13.0201 101.402 13.0201C100.183 13.0201 99.21 13.3867 98.482 14.1186C97.7553 14.8504 97.3913 15.9818 97.3913 17.5114V25.815H93.5744V17.5114C93.5744 16.1757 93.7616 15.0073 94.1361 14.0065C94.5106 13.0043 95.0396 12.1643 95.7244 11.4865C96.4092 10.8074 97.2328 10.2958 98.1952 9.95165C99.1576 9.60748 100.227 9.43474 101.403 9.43474C102.579 9.43474 103.649 9.60089 104.611 9.93582C105.574 10.2694 106.397 10.7758 107.081 11.4549C107.766 12.1327 108.295 12.9793 108.669 13.9907C109.044 15.0034 109.231 16.177 109.231 17.5128V25.8163H105.413V25.815ZM124.212 9.85539H128.03V18.1589C128.03 19.4947 127.843 20.663 127.468 21.6639C127.094 22.666 126.565 23.506 125.88 24.1838C125.195 24.8629 124.373 25.3745 123.41 25.7187C122.448 26.0629 121.378 26.2356 120.202 26.2356C119.026 26.2356 117.957 26.0681 116.994 25.7345C116.032 25.4009 115.208 24.8945 114.523 24.2154C113.839 23.5377 113.31 22.6911 112.935 21.6797C112.561 20.667 112.373 19.4934 112.373 18.1576V9.85407H116.19V18.1576C116.19 19.6872 116.554 20.8173 117.281 21.5505C118.008 22.2823 118.982 22.6489 120.201 22.6489C121.42 22.6489 122.393 22.2823 123.121 21.5505C123.848 20.8186 124.212 19.6872 124.212 18.1576V9.85407V9.85539ZM144.134 19.6767C144.134 20.7751 143.98 21.739 143.669 22.5684C143.359 23.3979 142.915 24.0823 142.338 24.6203C141.76 25.1583 141.075 25.5631 140.285 25.8321C139.494 26.1011 138.616 26.2356 137.654 26.2356C136.692 26.2356 135.814 26.1011 135.023 25.8321C134.233 25.5631 133.548 25.1596 132.97 24.6203C132.393 24.0823 131.949 23.3979 131.639 22.5684C131.328 21.739 131.174 20.7751 131.174 19.6767V4.52542H134.991V9.85539H143.172V13.3445H134.991V19.6767C134.991 20.754 135.237 21.5188 135.729 21.9711C136.222 22.4234 136.863 22.6502 137.654 22.6502C138.445 22.6502 139.086 22.4287 139.579 21.9882C140.071 21.5465 140.317 20.7764 140.317 19.678V19.2586H144.134V19.678V19.6767ZM149.941 19.1927V19.2573C150.198 20.3347 150.717 21.1852 151.497 21.8089C152.277 22.4339 153.267 22.7465 154.464 22.7465C156.175 22.7465 157.426 22.2401 158.217 21.2274H162.292C161.693 22.757 160.709 23.9741 159.34 24.8787C157.972 25.7833 156.346 26.2356 154.464 26.2356C153.202 26.2356 152.052 26.0259 151.015 25.6053C149.978 25.1846 149.08 24.6031 148.32 23.8607C147.561 23.117 146.973 22.2296 146.555 21.1957C146.138 20.1619 145.929 19.0424 145.929 17.8358C145.929 16.6293 146.138 15.5097 146.555 14.4759C146.972 13.4421 147.561 12.5533 148.32 11.8109C149.08 11.0672 149.978 10.4857 151.015 10.0664C152.052 9.64572 153.202 9.43606 154.464 9.43606C155.726 9.43606 156.848 9.64572 157.897 10.0664C158.945 10.4857 159.838 11.0672 160.576 11.8109C161.314 12.5533 161.891 13.4421 162.309 14.4759C162.726 15.5097 162.935 16.6293 162.935 17.8358V19.1927H149.941ZM154.465 12.9252C153.331 12.9252 152.385 13.2047 151.627 13.7652C150.867 14.3256 150.338 15.0891 150.038 16.0596V16.1242H158.892V16.0596C158.593 15.0904 158.058 14.3256 157.288 13.7652C156.519 13.2047 155.577 12.9252 154.465 12.9252ZM174.003 14.443C173.96 13.9471 173.725 13.5489 173.297 13.2469C172.869 12.945 172.281 12.7946 171.532 12.7946C170.677 12.7946 170.041 12.9674 169.623 13.3116C169.205 13.6557 168.997 14.0975 168.997 14.6368C168.997 15.1102 169.221 15.4438 169.671 15.6376C170.121 15.8315 170.688 15.9818 171.372 16.0899C172.057 16.1981 172.789 16.3049 173.57 16.413C174.35 16.5211 175.083 16.7361 175.767 17.0591C176.452 17.3822 177.017 17.8451 177.468 18.4477C177.917 19.0503 178.142 19.9021 178.142 21.0006C178.142 21.7548 177.987 22.4537 177.677 23.0999C177.367 23.746 176.923 24.3011 176.345 24.764C175.768 25.2268 175.067 25.5881 174.244 25.8466C173.42 26.1051 172.506 26.2343 171.501 26.2343C170.495 26.2343 169.586 26.1051 168.774 25.8466C167.961 25.5881 167.266 25.2321 166.689 24.7798C166.111 24.3275 165.662 23.7895 165.341 23.1645C165.02 22.5394 164.849 21.8511 164.828 21.0968H168.678C168.699 21.6348 168.939 22.066 169.399 22.3891C169.859 22.7122 170.538 22.8744 171.437 22.8744C172.463 22.8744 173.196 22.7016 173.634 22.3575C174.072 22.0133 174.291 21.561 174.291 21.0006C174.291 20.5272 174.067 20.1988 173.617 20.0156C173.168 19.8323 172.601 19.6925 171.916 19.5949C171.231 19.4973 170.499 19.3958 169.719 19.2877C168.938 19.1795 168.205 18.9699 167.521 18.6573C166.837 18.3448 166.27 17.8767 165.821 17.2517C165.371 16.6266 165.146 15.755 165.146 14.6355C165.146 13.8812 165.295 13.1863 165.595 12.552C165.895 11.9164 166.317 11.3679 166.863 10.9037C167.409 10.4409 168.071 10.0796 168.852 9.8211C169.632 9.56265 170.504 9.43342 171.467 9.43342C172.429 9.43342 173.296 9.56265 174.066 9.8211C174.836 10.0796 175.493 10.4356 176.039 10.8879C176.585 11.3402 177.007 11.8676 177.307 12.4716C177.606 13.0742 177.766 13.7309 177.788 14.4416H174.003V14.443Z" fill="white"/>
<path fill-rule="evenodd" clip-rule="evenodd" d="M58.1499 42.8294V37.2093H59.4973L61.5137 40.8699V37.2093H62.797V42.8294H61.4509L59.4423 39.2163V42.8294H58.1499ZM173.508 42.8294V37.2093H174.855L176.872 40.8699V37.2093H178.155V42.8294H176.809L174.8 39.2163V42.8294H173.508ZM68.4379 42.8294V37.2093H71.8436V38.255H69.7302V39.5288H71.8436V40.5481H69.7302V41.7864H71.8436V42.8281H68.4379V42.8294ZM164.024 42.8294V37.2093H167.43V38.255H165.316V39.5288H167.43V40.5481H165.316V41.7864H167.43V42.8281H164.024V42.8294ZM77.2828 38.3341V37.2093H81.1011V38.3341H79.8322V42.8294H78.5399V38.3341H77.2828ZM134.504 38.3341V37.2093H138.322V38.3341H137.053V42.8294H135.761V38.3341H134.504ZM85.9144 37.2093H87.2775L88.418 40.8936L89.5493 37.2093H90.5457L91.6862 40.8936L92.8176 37.2093H94.1806L92.21 42.8294H91.1599L90.0508 39.2981L88.9417 42.8294H87.8837L85.9144 37.2093ZM97.8718 40.0194C97.8718 39.6356 97.9386 39.2651 98.0709 38.9091C98.2031 38.5517 98.3969 38.2379 98.6522 37.9649C98.9076 37.692 99.2179 37.4744 99.5832 37.3122C99.9499 37.15 100.362 37.0682 100.826 37.0682C101.289 37.0682 101.702 37.15 102.065 37.3122C102.43 37.4744 102.74 37.692 102.994 37.9649C103.251 38.2379 103.445 38.5517 103.576 38.9091C103.708 39.2651 103.775 39.6356 103.775 40.0194C103.775 40.4031 103.708 40.7736 103.576 41.131C103.445 41.4883 103.251 41.8022 102.994 42.0751C102.739 42.3481 102.43 42.5657 102.065 42.7292C101.701 42.8927 101.288 42.9745 100.826 42.9745C100.364 42.9745 99.9499 42.8927 99.5832 42.7292C99.2179 42.5657 98.9076 42.3481 98.6522 42.0751C98.3956 41.8022 98.2018 41.4883 98.0709 41.1323C97.9386 40.7776 97.8718 40.4057 97.8718 40.0194ZM99.1956 40.0194C99.1956 40.2501 99.2323 40.4717 99.3069 40.6853C99.3816 40.9002 99.4876 41.0901 99.6277 41.2563C99.7678 41.4224 99.9381 41.5543 100.141 41.6532C100.344 41.7521 100.573 41.8022 100.827 41.8022C101.081 41.8022 101.309 41.7521 101.512 41.6532C101.714 41.5543 101.885 41.4211 102.028 41.2563C102.169 41.0901 102.277 40.9002 102.35 40.6853C102.425 40.4717 102.46 40.2488 102.46 40.0194C102.46 39.7899 102.425 39.5684 102.35 39.3534C102.275 39.1398 102.168 38.9499 102.028 38.7838C101.885 38.6176 101.715 38.4858 101.513 38.3882C101.313 38.2906 101.082 38.2405 100.826 38.2405C100.569 38.2405 100.344 38.2906 100.14 38.3882C99.9381 38.4858 99.7665 38.619 99.6264 38.7838C99.485 38.9499 99.379 39.1398 99.3056 39.3534C99.231 39.5684 99.1943 39.7912 99.1943 40.0194H99.1956ZM143.177 40.0194C143.177 39.6356 143.244 39.2651 143.376 38.9091C143.508 38.5517 143.702 38.2379 143.957 37.9649C144.213 37.692 144.523 37.4744 144.888 37.3122C145.255 37.15 145.668 37.0682 146.131 37.0682C146.595 37.0682 147.007 37.15 147.37 37.3122C147.735 37.4744 148.045 37.692 148.299 37.9649C148.556 38.2379 148.75 38.5517 148.881 38.9091C149.013 39.2651 149.08 39.6356 149.08 40.0194C149.08 40.4031 149.013 40.7736 148.881 41.131C148.75 41.4883 148.556 41.8022 148.299 42.0751C148.044 42.3481 147.735 42.5657 147.37 42.7292C147.006 42.8927 146.593 42.9745 146.131 42.9745C145.669 42.9745 145.255 42.8927 144.888 42.7292C144.523 42.5657 144.213 42.3481 143.957 42.0751C143.701 41.8022 143.507 41.4883 143.376 41.1323C143.244 40.7776 143.177 40.4057 143.177 40.0194ZM144.501 40.0194C144.501 40.2501 144.538 40.4717 144.612 40.6853C144.687 40.9002 144.793 41.0901 144.933 41.2563C145.073 41.4224 145.243 41.5543 145.446 41.6532C145.649 41.7521 145.878 41.8022 146.132 41.8022C146.386 41.8022 146.614 41.7521 146.817 41.6532C147.019 41.5543 147.19 41.4211 147.333 41.2563C147.475 41.0901 147.582 40.9002 147.655 40.6853C147.73 40.4717 147.765 40.2488 147.765 40.0194C147.765 39.7899 147.73 39.5684 147.655 39.3534C147.581 39.1398 147.473 38.9499 147.333 38.7838C147.19 38.6176 147.02 38.4858 146.819 38.3882C146.618 38.2906 146.388 38.2405 146.131 38.2405C145.874 38.2405 145.649 38.2906 145.445 38.3882C145.243 38.4858 145.072 38.619 144.932 38.7838C144.79 38.9499 144.684 39.1398 144.611 39.3534C144.536 39.5684 144.5 39.7912 144.5 40.0194H144.501ZM108.744 42.8307V37.2106H111.088C111.395 37.2106 111.677 37.266 111.926 37.3755C112.177 37.4849 112.39 37.6326 112.569 37.8185C112.747 38.0045 112.884 38.2194 112.98 38.4647C113.075 38.7113 113.124 38.971 113.124 39.2453C113.124 39.6422 113.027 40.0022 112.833 40.3253C112.638 40.6484 112.366 40.8923 112.015 41.0571L113.132 42.832H111.634L110.645 41.276H110.037V42.832H108.745L108.744 42.8307ZM110.036 40.2119H110.92C111.052 40.2119 111.175 40.1855 111.288 40.1315C111.401 40.0774 111.495 40.0075 111.572 39.9205C111.648 39.8321 111.707 39.7306 111.751 39.6132C111.793 39.4959 111.816 39.3719 111.816 39.244C111.816 39.1161 111.795 38.9921 111.751 38.8735C111.707 38.7561 111.648 38.6519 111.572 38.5649C111.495 38.4779 111.401 38.4067 111.289 38.3539C111.178 38.2999 111.055 38.2735 110.92 38.2735H110.036V40.2132V40.2119ZM118.66 42.8307V37.2106H119.952V39.5974L121.754 37.2106H123.307L121.101 40.0207L123.307 42.832H121.754L119.952 40.4572V42.832H118.66V42.8307ZM154.145 42.8307V37.2106H155.437V39.5974L157.239 37.2106H158.792L156.585 40.0207L158.792 42.832H157.239L155.437 40.4572V42.832H154.145V42.8307Z" fill="white"/>
<path d="M22.3422 45C34.6815 45 44.6845 34.9264 44.6845 22.5C44.6845 10.0736 34.6815 0 22.3422 0C10.003 0 0 10.0736 0 22.5C0 34.9264 10.003 45 22.3422 45Z" fill="#180C70"/>
<path d="M22.3422 42.0612C33.0698 42.0612 41.7663 33.3034 41.7663 22.5C41.7663 11.6966 33.0698 2.93878 22.3422 2.93878C11.6146 2.93878 2.91815 11.6966 2.91815 22.5C2.91815 33.3034 11.6146 42.0612 22.3422 42.0612Z" fill="url(#paint0_linear_1328_400)"/>
<path fill-rule="evenodd" clip-rule="evenodd" d="M9.92266 34.4792V12.1573C9.92266 11.846 10.1899 11.5934 10.52 11.5934C10.5948 11.5934 10.6668 11.6063 10.7325 11.6302C21.64 14.4633 31.7387 24.0015 34.7335 34.2955C34.8201 34.5949 34.6332 34.9035 34.3158 34.9852C34.1717 35.0219 34.0249 35.0054 33.9009 34.9484L20.9679 29.0507L10.8319 34.9558C10.5519 35.1193 10.1853 35.0366 10.012 34.773C9.95185 34.6812 9.92358 34.5783 9.92358 34.4782H9.92175L9.92266 34.4792Z" fill="#180C70"/>
<path fill-rule="evenodd" clip-rule="evenodd" d="M33.6246 25.3111C32.5366 23.5515 31.29 21.8884 29.903 20.3409C28.4986 18.7742 26.9556 17.3287 25.2923 16.0209C25.0397 15.8225 25.005 15.469 25.2157 15.2311C25.2595 15.1815 25.3105 15.1411 25.3652 15.109V15.1071C26.703 14.3458 28.1047 13.6662 29.561 13.0766C30.9882 12.499 32.4719 12.0086 34.003 11.6137C34.3204 11.5328 34.6478 11.7083 34.7335 12.0086C34.7481 12.0572 34.7544 12.1068 34.7544 12.1555H34.7572V25.0604C34.7572 25.3717 34.49 25.6243 34.1599 25.6243C33.9246 25.6243 33.7212 25.4966 33.6237 25.3102L33.6246 25.3111Z" fill="#180C70"/>
<path fill-rule="evenodd" clip-rule="evenodd" d="M9.92724 32.8451V10.5233C9.92724 10.212 10.1944 9.95941 10.5246 9.95941C10.5993 9.95941 10.6714 9.97227 10.737 9.99615C21.6446 12.8293 31.7433 22.3675 34.7381 32.6615C34.8247 32.9608 34.6378 33.2694 34.3204 33.3511C34.1763 33.3879 34.0295 33.3714 33.9055 33.3144L20.9725 27.4167L10.8364 33.3218C10.5565 33.4852 10.1899 33.4026 10.0166 33.139C9.95642 33.0472 9.92815 32.9443 9.92815 32.8442H9.92633L9.92724 32.8451Z" fill="url(#paint1_linear_1328_400)"/>
<path fill-rule="evenodd" clip-rule="evenodd" d="M33.6282 23.6755C32.5403 21.9159 31.2937 20.2527 29.9067 18.7053C28.5023 17.1386 26.9593 15.693 25.2959 14.3853C25.0433 14.1869 25.0087 13.8333 25.2193 13.5955C25.2631 13.5459 25.3142 13.5055 25.3689 13.4733V13.4715C26.7067 12.7102 28.1083 12.0306 29.5647 11.441C30.9918 10.8633 32.4756 10.3729 34.0067 9.97804C34.324 9.89722 34.6514 10.0726 34.7371 10.3729C34.7517 10.4216 34.7581 10.4712 34.7581 10.5199H34.7608V23.4257C34.7608 23.737 34.4936 23.9896 34.1635 23.9896C33.9283 23.9896 33.7249 23.8619 33.6273 23.6755H33.6282Z" fill="#00D5FF"/>
</g>
<defs>
<linearGradient id="paint0_linear_1328_400" x1="8.60767" y1="8.66848" x2="36.27" y2="36.1369" gradientUnits="userSpaceOnUse">
<stop stop-color="#3018E0"/>
<stop offset="0.19" stop-color="#2E17DA"/>
<stop offset="0.45" stop-color="#2B15C9"/>
<stop offset="0.73" stop-color="#2511AE"/>
<stop offset="1" stop-color="#1E0E8F"/>
</linearGradient>
<linearGradient id="paint1_linear_1328_400" x1="9.92724" y1="21.6833" x2="34.759" y2="21.6833" gradientUnits="userSpaceOnUse">
<stop stop-color="#FF00E6"/>
<stop offset="0.13" stop-color="#F900E6"/>
<stop offset="0.31" stop-color="#E800E9"/>
<stop offset="0.51" stop-color="#CD00EE"/>
<stop offset="0.73" stop-color="#A700F5"/>
<stop offset="0.96" stop-color="#7800FD"/>
<stop offset="1" stop-color="#6E00FF"/>
</linearGradient>
<clipPath id="clip0_1328_400">
<rect width="180" height="45" fill="white"/>
</clipPath>
</defs>
</svg>
