<?xml version="1.0" encoding="UTF-8"?>
<svg id="Layer_1" data-name="Layer 1" xmlns="http://www.w3.org/2000/svg" viewBox="0 0 1113.63 576.17">
  <g id="Layer_1-2" data-name="Layer 1-2">
    <path d="m358.45,207.7v26.25c0,25.68-21.15,46.46-47.4,46.65h-42.87c-33.43-.01-60.43,26.62-60.43,59.29v26.25h57.22v-26.44c0-25.68,21.15-46.46,47.4-46.65h42.87c33.24,0,60.24-26.44,60.24-59.11v-26.24h-57.03Z"/>
    <circle cx="236.44" cy="231.17" r="28.71"/>
    <path d="m473.24,273.9v-66.17h22.59c5.29,0,9.64.88,13.05,2.65,3.4,1.77,5.92,4.13,7.56,7.09,1.64,2.96,2.46,6.33,2.46,10.11s-.8,6.89-2.41,9.88c-1.61,2.99-4.11,5.39-7.52,7.18s-7.78,2.69-13.14,2.69h-13.14v26.56h-9.45,0Zm9.45-34.41h12.76c4.98,0,8.52-1.09,10.63-3.26,2.11-2.17,3.17-5.06,3.17-8.65,0-3.84-1.06-6.81-3.17-8.89-2.11-2.08-5.66-3.12-10.63-3.12h-12.76v23.92Z"/>
    <path d="m542.43,275.04c-4.54,0-8.54-1.09-12.01-3.26-3.47-2.17-6.16-5.14-8.08-8.89-1.92-3.75-2.88-8.02-2.88-12.81s.98-9.14,2.93-12.86c1.95-3.72,4.66-6.66,8.13-8.84,3.47-2.17,7.47-3.26,12.01-3.26,3.72,0,7,.76,9.83,2.27,2.84,1.51,5.04,3.59,6.62,6.24l.66-7.37h8.79v47.64h-8.7l-.76-7.37c-1.45,2.21-3.53,4.18-6.24,5.91-2.71,1.73-6.14,2.6-10.3,2.6Zm1.51-8.22c2.96,0,5.58-.69,7.85-2.08,2.27-1.39,4.02-3.34,5.25-5.86s1.84-5.45,1.84-8.79-.61-6.25-1.84-8.74c-1.23-2.49-2.98-4.44-5.25-5.86-2.27-1.42-4.88-2.13-7.85-2.13s-5.39.71-7.66,2.13c-2.27,1.42-4.03,3.37-5.29,5.86s-1.89,5.4-1.89,8.74.63,6.27,1.89,8.79,3.03,4.48,5.29,5.86c2.27,1.39,4.82,2.08,7.66,2.08Z"/>
    <path d="m576.65,273.9v-47.64h8.51l.85,8.98c1.07-2.14,8-8.98,16.23-8.98h8.22v8.03h-8.22c-9.93,0-14.25,6.65-15,8.6-.76,1.95-1.13,4.38-1.13,7.28v23.73h-9.46Z"/>
    <path d="m625.12,273.9c-2.96,0-5.55-.47-7.75-1.42-2.21-.95-3.91-2.52-5.1-4.73-1.2-2.21-1.8-5.2-1.8-8.98v-24.48h-8.22v-8.03h3.96c2.42,0,4.44-1.84,4.67-4.24l.73-7.67h8.32v11.91h13.52v8.03h-13.52v24.58c0,2.71.57,4.55,1.7,5.53s3.09,1.47,5.86,1.47h5.48v8.04h-7.85Z"/>
    <path d="m644.59,217.28c-1.83,0-3.32-.57-4.49-1.7-1.17-1.13-1.75-2.58-1.75-4.35s.58-3.1,1.75-4.21c1.17-1.1,2.66-1.65,4.49-1.65s3.25.55,4.44,1.65c1.2,1.1,1.8,2.51,1.8,4.21s-.6,3.21-1.8,4.35c-1.2,1.13-2.68,1.7-4.44,1.7Zm-4.82,56.62v-47.64h9.45v47.64h-9.45Z"/>
    <path d="m676.45,275.04c-4.03,0-7.56-.66-10.59-1.99s-5.42-3.18-7.18-5.58c-1.77-2.39-2.84-5.2-3.21-8.41h9.64c.31,1.51.93,2.9,1.84,4.16s2.17,2.27,3.78,3.03c1.61.76,3.51,1.13,5.72,1.13,2.08,0,3.8-.3,5.15-.9s2.35-1.42,2.98-2.46.95-2.16.95-3.36c0-1.76-.43-3.1-1.28-4.02-.85-.91-2.11-1.64-3.78-2.17-1.67-.53-3.67-1.02-6-1.47-2.21-.38-4.33-.9-6.38-1.56-2.05-.66-3.88-1.5-5.48-2.51-1.61-1.01-2.88-2.28-3.83-3.83-.95-1.54-1.42-3.45-1.42-5.72,0-2.71.72-5.15,2.17-7.33,1.45-2.17,3.51-3.88,6.19-5.1,2.68-1.23,5.84-1.84,9.5-1.84,5.29,0,9.55,1.26,12.76,3.78,3.21,2.52,5.1,6.08,5.67,10.68h-9.17c-.25-2.14-1.2-3.8-2.84-4.96-1.64-1.17-3.81-1.75-6.52-1.75s-4.79.54-6.24,1.61c-1.45,1.07-2.17,2.49-2.17,4.25,0,1.13.41,2.14,1.23,3.02s2.03,1.62,3.64,2.22c1.61.6,3.58,1.15,5.91,1.65,3.34.63,6.33,1.42,8.98,2.36,2.65.95,4.76,2.33,6.33,4.16,1.57,1.83,2.36,4.44,2.36,7.85.06,2.96-.68,5.58-2.22,7.85-1.55,2.27-3.72,4.03-6.52,5.29s-6.13,1.89-9.97,1.89v.03Z"/>
    <path d="m707.08,217.28c-1.83,0-3.32-.57-4.49-1.7-1.17-1.13-1.75-2.58-1.75-4.35s.58-3.1,1.75-4.21c1.17-1.1,2.66-1.65,4.49-1.65s3.25.55,4.44,1.65c1.2,1.1,1.8,2.51,1.8,4.21s-.6,3.21-1.8,4.35c-1.2,1.13-2.68,1.7-4.44,1.7Zm-4.82,56.62v-47.64h9.45v47.64h-9.45Z"/>
    <path d="m741.67,275.04c-4.54,0-8.54-1.09-12.01-3.26-3.47-2.17-6.16-5.14-8.08-8.89-1.92-3.75-2.88-8.02-2.88-12.81s.98-9.14,2.93-12.86c1.95-3.72,4.66-6.66,8.13-8.84,3.47-2.17,7.47-3.26,12.01-3.26,3.72,0,7,.76,9.83,2.27,2.84,1.51,5.04,3.59,6.62,6.24l.66-7.37h8.79v47.64h-8.7l-.76-7.37c-1.45,2.21-3.53,4.18-6.24,5.91-2.71,1.73-6.14,2.6-10.3,2.6h0Zm1.51-8.22c2.96,0,5.58-.69,7.85-2.08,2.27-1.39,4.02-3.34,5.25-5.86s1.84-5.45,1.84-8.79-.61-6.25-1.84-8.74c-1.23-2.49-2.98-4.44-5.25-5.86-2.27-1.42-4.88-2.13-7.85-2.13s-5.39.71-7.66,2.13c-2.27,1.42-4.03,3.37-5.29,5.86-1.26,2.49-1.89,5.4-1.89,8.74s.63,6.27,1.89,8.79,3.03,4.48,5.29,5.86c2.27,1.39,4.82,2.08,7.66,2.08Z"/>
    <path d="m472.65,366.14v-66.17h24.48c4.6,0,8.44.74,11.53,2.22s5.4,3.5,6.95,6.05c1.54,2.55,2.32,5.44,2.32,8.65s-.73,6.14-2.17,8.41c-1.45,2.27-3.36,4.02-5.72,5.25-2.36,1.23-4.9,1.94-7.61,2.13l1.32-.95c2.9.06,5.54.84,7.94,2.32,2.39,1.48,4.29,3.45,5.67,5.91,1.39,2.46,2.08,5.17,2.08,8.13,0,3.4-.82,6.48-2.46,9.22-1.64,2.74-4.07,4.9-7.28,6.48s-7.15,2.36-11.82,2.36h-25.24,0Zm9.45-37.62h13.99c3.97,0,7-.93,9.07-2.79,2.08-1.86,3.12-4.43,3.12-7.7s-1.04-5.66-3.12-7.52-5.2-2.79-9.36-2.79h-13.71v20.8h0Zm0,29.78h14.56c4.16,0,7.39-.96,9.69-2.88s3.45-4.65,3.45-8.18-1.18-6.24-3.55-8.32c-2.36-2.08-5.62-3.12-9.78-3.12h-14.37v22.5h0Z"/>
    <path d="m525.5,366.14v-68.06h9.45v68.06h-9.45Z"/>
    <path d="m564.92,367.28c-4.48,0-8.49-1.04-12.05-3.12s-6.37-4.99-8.41-8.74c-2.05-3.75-3.07-8.08-3.07-13s1.04-9.44,3.12-13.19,4.92-6.66,8.51-8.74c3.59-2.08,7.62-3.12,12.1-3.12s8.57,1.04,12.1,3.12,6.32,4.98,8.37,8.7,3.07,8.1,3.07,13.14-1.02,9.42-3.07,13.14c-2.05,3.72-4.87,6.62-8.46,8.7s-7.66,3.12-12.19,3.12h-.02Zm0-8.13c2.58,0,4.93-.63,7.04-1.89,2.11-1.26,3.81-3.13,5.1-5.62,1.29-2.49,1.94-5.59,1.94-9.31s-.63-6.82-1.89-9.31c-1.26-2.49-2.95-4.36-5.06-5.62s-4.43-1.89-6.95-1.89-4.85.63-7,1.89c-2.14,1.26-3.86,3.14-5.15,5.62-1.29,2.49-1.94,5.59-1.94,9.31s.65,6.82,1.94,9.31c1.29,2.49,2.99,4.36,5.1,5.62,2.11,1.26,4.4,1.89,6.85,1.89h.02Z"/>
    <path d="m617.1,367.28c-4.6,0-8.7-1.06-12.29-3.17s-6.41-5.03-8.46-8.74c-2.05-3.72-3.07-8.04-3.07-12.95s1.02-9.34,3.07-13.09c2.05-3.75,4.87-6.68,8.46-8.79s7.69-3.17,12.29-3.17c5.8,0,10.65,1.51,14.56,4.54,3.91,3.02,6.4,7.12,7.47,12.29h-9.83c-.63-2.77-2.06-4.92-4.3-6.43s-4.9-2.27-7.99-2.27c-2.52,0-4.85.65-7,1.94-2.14,1.29-3.86,3.18-5.15,5.67s-1.94,5.56-1.94,9.22c0,2.71.38,5.12,1.13,7.23.76,2.11,1.78,3.89,3.07,5.34s2.79,2.54,4.49,3.26c1.7.73,3.5,1.09,5.39,1.09,2.08,0,3.95-.33,5.62-.99,1.67-.66,3.09-1.65,4.25-2.98,1.17-1.32,1.97-2.9,2.41-4.73h9.83c-1.07,5.04-3.56,9.09-7.47,12.15s-8.76,4.58-14.56,4.58h.02Z"/>
    <path d="m645.46,366.14v-68.06h9.45v68.06h-9.45Zm29.97,0l-21.93-26.09,19.85-21.55h11.44l-23.63,25.24v-7.09l26.19,29.49h-11.92Z"/>
    <path d="m708.98,367.28c-4.6,0-8.7-1.06-12.29-3.17s-6.41-5.03-8.46-8.74c-2.05-3.72-3.07-8.04-3.07-12.95s1.02-9.34,3.07-13.09c2.05-3.75,4.87-6.68,8.46-8.79s7.69-3.17,12.29-3.17c5.8,0,10.65,1.51,14.56,4.54,3.91,3.02,6.4,7.12,7.47,12.29h-9.83c-.63-2.77-2.06-4.92-4.3-6.43s-4.9-2.27-7.99-2.27c-2.52,0-4.85.65-7,1.94-2.14,1.29-3.86,3.18-5.15,5.67s-1.94,5.56-1.94,9.22c0,2.71.38,5.12,1.13,7.23.76,2.11,1.78,3.89,3.07,5.34s2.79,2.54,4.49,3.26c1.7.73,3.5,1.09,5.39,1.09,2.08,0,3.95-.33,5.62-.99,1.67-.66,3.09-1.65,4.25-2.98,1.17-1.32,1.97-2.9,2.41-4.73h9.83c-1.07,5.04-3.56,9.09-7.47,12.15-3.91,3.06-8.76,4.58-14.56,4.58h.02Z"/>
    <path d="m737.34,366.14v-68.06h9.45v28.17c1.57-2.77,3.76-4.95,6.57-6.52,2.8-1.57,5.91-2.36,9.31-2.36,3.78,0,7.03.77,9.74,2.32,2.71,1.54,4.79,3.84,6.24,6.9,1.45,3.06,2.17,6.89,2.17,11.49v28.08h-9.36v-27.04c0-4.47-.95-7.86-2.84-10.16s-4.7-3.45-8.41-3.45c-2.52,0-4.79.6-6.81,1.8-2.02,1.2-3.62,2.95-4.82,5.25s-1.8,5.09-1.8,8.37v25.24h-9.45v-.03Z"/>
    <path d="m809.37,367.28c-4.54,0-8.54-1.09-12.01-3.26-3.47-2.17-6.16-5.14-8.08-8.89-1.92-3.75-2.88-8.02-2.88-12.81s.98-9.14,2.93-12.86,4.66-6.66,8.13-8.84c3.47-2.17,7.47-3.26,12.01-3.26,3.72,0,7,.76,9.83,2.27,2.84,1.51,5.04,3.59,6.62,6.24l.66-7.37h8.79v47.64h-8.7l-.76-7.37c-1.45,2.21-3.53,4.18-6.24,5.91-2.71,1.73-6.14,2.6-10.3,2.6h0Zm1.51-8.22c2.96,0,5.58-.69,7.85-2.08,2.27-1.39,4.02-3.34,5.25-5.86s1.84-5.45,1.84-8.79-.61-6.25-1.84-8.74c-1.23-2.49-2.98-4.44-5.25-5.86s-4.88-2.13-7.85-2.13-5.39.71-7.66,2.13c-2.27,1.42-4.03,3.37-5.29,5.86-1.26,2.49-1.89,5.4-1.89,8.74s.63,6.27,1.89,8.79c1.26,2.52,3.02,4.48,5.29,5.86,2.27,1.39,4.82,2.08,7.66,2.08Z"/>
    <path d="m849.07,309.52c-1.83,0-3.32-.57-4.49-1.7s-1.75-2.58-1.75-4.35.58-3.1,1.75-4.21c1.17-1.1,2.66-1.65,4.49-1.65s3.25.55,4.44,1.65c1.2,1.1,1.8,2.51,1.8,4.21s-.6,3.21-1.8,4.35c-1.2,1.13-2.68,1.7-4.44,1.7Zm-4.82,56.62v-47.64h9.45v47.64h-9.45Z"/>
    <path d="m862.5,366.14v-47.64h8.51l.57,8.13c1.51-2.84,3.65-5.09,6.43-6.76,2.77-1.67,5.96-2.51,9.55-2.51,3.78,0,7.03.76,9.74,2.27,2.71,1.51,4.82,3.8,6.33,6.85,1.51,3.06,2.27,6.89,2.27,11.49v28.17h-9.45v-27.22c0-4.41-.98-7.75-2.93-10.02-1.95-2.27-4.79-3.4-8.51-3.4-2.46,0-4.66.58-6.62,1.75-1.95,1.17-3.51,2.88-4.68,5.15s-1.75,5.04-1.75,8.32v25.43h-9.46Z"/>
  </g>
</svg>